<?xml version="1.0" encoding="UTF-8"?><svg id="a" xmlns="http://www.w3.org/2000/svg" width="175" height="175" xmlns:xlink="http://www.w3.org/1999/xlink" viewBox="0 0 175 175"><defs><style>.d{filter:url(#b);stroke-linecap:square;stroke-linejoin:bevel;stroke-width:1.2222px;}.d,.e{fill:#fff;stroke:#fff;}.e{stroke-miterlimit:10;stroke-width:1.2222px;}</style><filter id="b" filterUnits="userSpaceOnUse"><feOffset dx="3.9206" dy="1.9603"/><feGaussianBlur result="c" stdDeviation="2.5204"/><feFlood flood-color="#000" flood-opacity=".79"/><feComposite in2="c" operator="in"/><feComposite in="SourceGraphic"/></filter></defs><path class="e" d="M22.0463,131.4226c6.0484,7.1033,13.3344,13.1203,21.5245,17.7177l14.6887-21.199,23.1331-34.2046,55.5422,79.2633h33.9424L81.1006,44.447,22.0463,131.4226Z"/><path class="d" d="M43.5708,149.1404C19.5102,135.6343,3.2523,109.8757,3.2523,80.32,3.2523,36.7629,38.5623,1.4529,82.1194,1.4529s78.8671,35.31,78.8671,78.8671-35.31,78.8671-78.8671,78.8671c-8.6872,0-17.0463-1.4045-24.8627-3.9989l15.2687-22.4791c3.1528,.5769,6.4019,.8782,9.7214,.8782,29.6397,0,53.6675-24.0277,53.6675-53.6675s-24.0277-53.6675-53.6675-53.6675S28.5752,50.2801,28.5794,79.9198c.0015,10.7686,3.1746,20.7968,8.6357,29.2013l6.3557,40.0193Z"/><path class="e" d="M81.1006,44.447L22.0463,131.4226c6.0484,7.1033,13.3344,13.1203,21.5245,17.7177l14.6887-21.199,23.1331-34.2046"/></svg>